<svg width="38" height="39" viewBox="0 0 38 39" fill="none" xmlns="http://www.w3.org/2000/svg">
<path d="M15.184 10H6.76581L0.0312616 35.2471C-0.183685 38.1483 0.673547 38.9325 3.73526 39H27.9796L30 31.4941H8.78617L15.184 10Z" fill="#0504AA"/>
<path d="M12 29L17.6 10H26L20.4 29H12Z" fill="#0504AA"/>
<path d="M26 16L27.7157 10H34.2355C35.2594 11.9643 35.2502 13.2761 34.2355 16H26Z" fill="#0504AA"/>
<path d="M24.069 22L22 29H28.5517C30.7723 27.9168 31.4524 26.2427 32 22H24.069Z" fill="#0504AA"/>
<path d="M35.9333 7H7C7.57081 2.48821 8.50481 0.884253 11.4778 0H38C38 0 36.9667 7 35.9333 7Z" fill="#0504AA"/>
</svg>
